# AST/ASF file generated using VICON BodyLanguage
# -----------------------------------------------
:version 1.10
:name VICON
:units
  mass 1.0
  length 0.45
  angle deg
:documentation
   .ast/.asf automatically generated from VICON data using
   VICON BodyBuilder and BodyLanguage model FoxedUp or BRILLIANT.MOD
:root
   order TX TY TZ RX RY RZ
   axis XYZ
   position 0 0 0  
   orientation 0 0 0 
:bonedata
  begin
     id 1 
     name lhipjoint
     direction 0.63403 -0.759788 0.143974 
     length 2.51904 
     axis 0 0 0  XYZ
  end
  begin
     id 2 
     name lfemur
     direction 0.34202 -0.939693 0  
     length 7.42313  
     axis 0 0 20  XYZ
    dof rx ry rz
    limits (-160.0 20.0)
           (-70.0 70.0)
           (-60.0 70.0)
  end
  begin
     id 3 
     name ltibia
     direction 0.34202 -0.939693 0   
     length 8.10141   
     axis 0 0 20   XYZ
    dof rx
    limits (-10.0 170.0)
  end
  begin
     id 4 
     name lfoot
     direction 0.0927455 -0.254816 0.962532   
     length 2.14078   
     axis -90 7.62852e-016 20   XYZ
    dof rx rz
    limits (-45.0 90.0)
           (-70.0 20.0)
  end
  begin
     id 5 
     name ltoes
     direction 1.53556e-011 -4.21949e-011 1   
     length 1.07182   
     axis -90 7.62852e-016 20   XYZ
    dof rx
    limits (-90.0 20.0)
  end
  begin
     id 6 
     name rhipjoint
     direction -0.659892 -0.738223 0.139888   
     length 2.59263  
     axis 0 0 0  XYZ 
  end
  begin
     id 7 
     name rfemur
     direction -0.34202 -0.939693 0   
     length 7.58575   
     axis 0 0 -20   XYZ
    dof rx ry rz
    limits (-160.0 20.0)
           (-70.0 70.0)
           (-70.0 60.0)
  end
  begin
     id 8 
     name rtibia
     direction -0.34202 -0.939693 0   
     length 8.19358   
     axis 0 0 -20   XYZ
    dof rx
    limits (-10.0 170.0)
 end
 begin
     id 9 
     name rfoot
     direction -0.0856543 -0.235333 0.968133   
     length 2.13415  
     axis -90 -7.62852e-016 -20   XYZ
    dof rx rz
    limits (-45.0 90.0)
           (-20.0 70.0)
  end
  begin
     id 10 
     name rtoes
     direction -1.53551e-011 -4.21811e-011 1   
     length 1.07055   
     axis -90 -7.62852e-016 -20   XYZ
    dof rx
    limits (-90.0 20.0)
  end
  begin
     id 11 
     name lowerback
     direction 0.025219 0.998394 -0.0507326   
     length 1.91844   
     axis 0 0 0   XYZ
    dof rx ry rz
    limits (-20.0 45.0)
           (-30.0 30.0)
           (-30.0 30.0)
  end
  begin
     id 12 
     name upperback
     direction 0.0213103 0.99967 -0.0143101   
     length 1.92246   
     axis 0 0 0   XYZ
    dof rx ry rz
    limits (-20.0 45.0)
           (-30.0 30.0)
           (-30.0 30.0)
  end
  begin
     id 13 
     name thorax
     direction 0.00920974 0.99991 0.00971518   
     length 1.92239   
     axis 0 0 0   XYZ
    dof rx ry rz
    limits (-20.0 45.0)
           (-30.0 30.0)
           (-30.0 30.0)
  end
  begin
     id 14 
     name lowerneck
     direction 0.0598257 0.997249 0.0437612   
     length 3.13679   
     axis 0 0 0   XYZ
    dof rx ry rz
    limits (-20.0 45.0)
           (-30.0 30.0)
           (-30.0 30.0)
  end
  begin
     id 15 
     name upperneck
     direction -0.035342 0.999338 0.00863891   
     length 3.16283   
     axis 0 0 0   XYZ
    dof rx ry rz
    limits (-20.0 45.0)
           (-30.0 30.0)
           (-30.0 30.0)
  end
  begin
     id 16
     name head
     direction 0.37144 0.811566 0.450991  
     length 1.2838  
     axis 0 0 0   XYZ
    dof rx ry rz
    limits (-20.0 45.0)
           (-30.0 30.0)
           (-30.0 30.0)
  end
  begin
     id 17 
     name lclavicle
     direction 0.961094 0.274654 -0.0293862  
     length 3.63466  
     axis 0 0 0   XYZ
    dof ry rz
    limits (-20.0 10.0)
           (0.0 20.0)
  end
  begin
     id 18 
     name lhumerus
     direction 1 -4.48963e-011 1.10303e-027   
     length 5.12842   
     axis 180 -30 -90   XYZ
    dof rx ry rz
    limits (-60.0 90.0)
           (-90.0 90.0)
           (-90.0 90.0)
  end
  begin
     id 19
     name lradius
     direction 1 -4.48968e-011 4.13199e-027   
     length 3.47396   
     axis 180 -30 -90   XYZ
    dof rx
    limits (-10.0 170.0)
  end
  begin
     id 20
     name lwrist
     direction 1 -4.48948e-011 9.12708e-027   
     length 1.73698   
     axis -6.84618e-015 90 90   XYZ
    dof ry
    limits (-180.0 0.0)
 end
  begin
     id 21 
     name lhand
     direction 1 -4.49057e-011 1.82749e-026   
     length 0.728607   
     axis -1.16502e-014 90 90   XYZ
    dof rx rz
    limits (-90.0 90.0)
           (-45.0 45.0)
  end
  begin
     id 22 
     name lfingers
     direction 1 -4.48912e-011 3.64949e-026   
     length 0.587422   
     axis -2.33008e-014 90 90   XYZ
    dof rx
    limits (0.0 90.0)
  end
  begin
     id 23
     name lthumb
     direction 0.707107 -6.34995e-011 0.707107   
     length 0.843424   
     axis -90 45 5.69224e-014   XYZ
    dof rx rz
    limits (-45.0 45.0)
           (-45.0 45.0)
  end
  begin
     id 24 
     name rclavicle
     direction -0.90514 0.421881 -0.0523369   
     length 3.57139  
     axis 0 0 0   XYZ 
    dof ry rz
    limits (-10.0 20.0)
           (-20.0 0.0)
  end
  begin
     id 25 
     name rhumerus
     direction -1 -4.48954e-011 -1.76662e-027  
     length 5.48477   
     axis 180 30 90   XYZ
    dof rx ry rz
    limits (-90.0 60.0)
           (-90.0 90.0)
           (-90.0 90.0)
  end
  begin
     id 26 
     name rradius
     direction -1 -4.48982e-011 1.26841e-027   
     length 3.47856   
     axis 180 30 90   XYZ
    dof rx
    limits (-10.0 170.0)
  end
  begin
     id 27 
     name rwrist
     direction -1 -4.49037e-011 9.13554e-027   
     length 1.73928   
     axis -6.84618e-015 -90 -90   XYZ
    dof ry
    limits (-180.0 0.0)
  end
  begin
     id 28
     name rhand
     direction -1 -4.48871e-011 1.82397e-026   
     length 0.709974   
     axis -1.16502e-014 -90 -90   XYZ
    dof rx rz
    limits (-90.0 90.0)
           (-45.0 45.0)
  end
  begin
     id 29
     name rfingers
     direction -1 -4.48994e-011 3.65258e-026   
     length 0.572399   
     axis -2.33008e-014 -90 -90   XYZ
    dof rx
    limits (0.0 90.0)
  end
  begin
     id 30
     name rthumb
     direction -0.707107 -6.34861e-011 0.707107   
     length 0.821855   
     axis -90 -45 -5.69224e-014   XYZ
    dof rx rz
    limits (-45.0 45.0)
           (-45.0 45.0)
  end
:hierarchy
  begin
    root lhipjoint rhipjoint lowerback
    lhipjoint lfemur
    lfemur ltibia
    ltibia lfoot
    lfoot ltoes
    rhipjoint rfemur
    rfemur rtibia
    rtibia rfoot
    rfoot rtoes
    lowerback upperback
    upperback thorax
    thorax lowerneck lclavicle rclavicle
    lowerneck upperneck
    upperneck head
    lclavicle lhumerus
    lhumerus lradius
    lradius lwrist
    lwrist lhand lthumb
    lhand lfingers
    rclavicle rhumerus
    rhumerus rradius
    rradius rwrist
    rwrist rhand rthumb
    rhand rfingers
  end

#!OML:ASF F:\VICON\USERDATA\INSTALL\Justin1\Justin1.ASF
:FULLY-SPECIFIED
:DEGREES
4113
root 15.5802 17.9633 4.62937 3.73864 6.25566 -1.4241
lowerback 8.46725 -0.216674 3.72467
upperback 1.55718 0.189331 3.90141
thorax -3.13651 0.0753723 1.92964
lowerneck -11.2083 -4.95964 -5.93268
upperneck 24.716 -4.94671 -2.79394
head 9.78411 -3.12947 -0.551413
rclavicle 9.14409e-015 -3.97569e-014
rhumerus -29.3829 -12.3856 -74.7632
rradius 37.9458
rwrist -10.6399
rhand -28.0447 14.3846
rfingers 7.12502
rthumb -1.42904 -15.5903
lclavicle 9.14409e-015 -3.97569e-014
lhumerus -34.8913 13.9954 85.4501
lradius 40.4917
lwrist -7.33194
lhand -11.3518 30.0045
lfingers 7.12502
lthumb 14.6816 59.4647
rfemur -36.9373 11.2553 16.9967
rtibia 30.9952
rfoot -9.05818 1.05195
rtoes 12.5067
lfemur -12.7292 -8.35487 -23.2521
ltibia 35.5865
lfoot -21.2073 4.74494
ltoes 4.85918
4114
root 15.5965 17.9583 4.54125 3.67091 5.8191 -1.41901
lowerback 8.60087 -0.235051 3.66813
upperback 1.54667 0.16779 3.87941
thorax -3.2218 0.0641251 1.94188
lowerneck -11.1827 -4.94952 -5.95055
upperneck 24.5364 -4.93415 -2.80693
head 9.71526 -3.12483 -0.547145
rclavicle -1.98785e-014 -4.45278e-014
rhumerus -29.2753 -12.4747 -74.8416
rradius 37.586
rwrist -10.2048
rhand -27.9423 14.4085
rfingers 7.12502
rthumb -1.33015 -15.5671
lclavicle -1.98785e-014 -4.45278e-014
lhumerus -34.9499 14.3723 85.2086
lradius 40.2588
lwrist -7.39559
lhand -11.1498 30.3686
lfingers 7.12502
lthumb 14.8762 59.8145
rfemur -37.2002 10.7615 17.3711
rtibia 32.3914
rfoot -10.2248 0.214545
rtoes 14.047
lfemur -12.9358 -8.33136 -23.3959
ltibia 35.6803
lfoot -21.1307 5.23527
ltoes 4.57136
4115
root 15.6123 17.9541 4.45434 3.64561 5.37448 -1.38669
lowerback 8.68837 -0.23642 3.61295
upperback 1.54369 0.164755 3.84146
thorax -3.27362 0.0623254 1.93429
lowerneck -11.3402 -4.91082 -5.91821
upperneck 24.5012 -4.86313 -2.86509
head 9.72897 -3.09632 -0.568016
rclavicle -2.78299e-015 3.18055e-014
rhumerus -29.1334 -12.6018 -74.9128
rradius 37.1365
rwrist -9.81325
rhand -28.0049 14.2538
rfingers 7.12502
rthumb -1.39068 -15.7214
lclavicle -2.78299e-015 3.18055e-014
lhumerus -35.0761 14.6468 84.9909
lradius 40.1408
lwrist -7.28988
lhand -11.22 30.5506
lfingers 7.12502
lthumb 14.8086 60.0015
rfemur -37.5311 10.3228 17.6975
rtibia 33.8899
rfoot -11.1769 -0.952406
rtoes 12.8216
lfemur -13.1827 -8.18922 -23.5539
ltibia 35.7827
lfoot -21.0016 5.62547
ltoes 3.95444
4116
root 15.624 17.9503 4.36616 3.64797 4.83684 -1.34258
lowerback 8.74752 -0.183841 3.50245
upperback 1.54428 0.225977 3.80341
thorax -3.30665 0.0931365 1.95005
lowerneck -11.3634 -4.86354 -5.92137
upperneck 24.408 -4.79029 -2.89669
head 9.69847 -3.06569 -0.568522
rclavicle -2.38542e-015 1.43125e-014
rhumerus -29.0553 -12.631 -75.0368
rradius 36.7401
rwrist -9.79496
rhand -27.9839 14.038
rfingers 7.12502
rthumb -1.37034 -15.9374
lclavicle -2.38542e-015 1.43125e-014
lhumerus -35.2613 14.9196 84.7789
lradius 40.1157
lwrist -7.28626
lhand -11.4082 30.518
lfingers 7.12502
lthumb 14.6272 59.9821
rfemur -37.9264 10.0494 17.9933
rtibia 35.4527
rfoot -11.9005 -2.37753
rtoes 11.0082
lfemur -13.5013 -7.97192 -23.7036
ltibia 35.8911
lfoot -20.807 5.84112
ltoes 3.92261
4117
root 15.6347 17.9498 4.28029 3.60387 4.28686 -1.2938
lowerback 8.81404 -0.126402 3.3554
upperback 1.55135 0.290595 3.77605
thorax -3.33746 0.126144 1.99697
lowerneck -11.2996 -4.83875 -5.98722
upperneck 24.2972 -4.75622 -2.87447
head 9.64937 -3.05209 -0.542056
rclavicle 2.18663e-015 1.27222e-014
rhumerus -29.0107 -12.6009 -75.1888
rradius 36.397
rwrist -10.011
rhand -27.9926 14.0775
rfingers 7.12502
rthumb -1.37876 -15.8978
lclavicle 2.18663e-015 1.27222e-014
lhumerus -35.3937 15.2212 84.5559
lradius 39.8935
lwrist -7.36687
lhand -11.5002 30.3676
lfingers 7.12502
lthumb 14.5386 59.8382
rfemur -38.2016 9.76573 18.3154
rtibia 37.0377
rfoot -12.558 -3.64611
rtoes 10.7149
lfemur -13.796 -7.7552 -23.8487
ltibia 35.9982
lfoot -20.6562 6.0007
ltoes 4.61839
4118
root 15.6452 17.9513 4.19804 3.52276 3.87841 -1.35106
lowerback 8.85011 -0.106446 3.34665
upperback 1.57191 0.316844 3.77375
thorax -3.33646 0.139128 1.9965
lowerneck -11.38 -4.83724 -6.04648
upperneck 24.2964 -4.74183 -2.85373
head 9.66688 -3.04947 -0.525951
rclavicle 1.33186e-014 -1.59028e-014
rhumerus -29.0092 -12.6822 -75.309
rradius 36.2108
rwrist -10.0477
rhand -28.0913 14.1855
rfingers 7.12502
rthumb -1.47407 -15.7892
lclavicle 1.33186e-014 -1.59028e-014
lhumerus -35.5149 15.433 84.3372
lradius 39.6275
lwrist -7.31159
lhand -11.4143 30.1897
lfingers 7.12502
lthumb 14.6214 59.6542
rfemur -38.3624 9.28246 18.8059
rtibia 38.6205
rfoot -13.0162 -4.78127
rtoes 9.883
lfemur -14.0634 -7.55167 -23.844
ltibia 36.0938
lfoot -20.6087 6.08516
ltoes 5.2413
